<svg width="40" height="41" viewBox="0 0 40 41" fill="none" xmlns="http://www.w3.org/2000/svg">
<path fill-rule="evenodd" clip-rule="evenodd" d="M21.3234 23.0649C21.3234 20.1325 22.8885 18.5014 24.7826 18.5014C26.7886 18.5014 28.088 20.0674 28.0871 22.8395C28.0871 25.9054 26.5015 27.4262 24.6715 27.4262C22.8885 27.4262 21.344 25.974 21.3234 23.0649ZM22.8441 22.9765C22.8219 24.8322 23.5267 26.2411 24.7168 26.2411C25.994 26.2411 26.5664 24.8538 26.5664 22.9322C26.5664 21.1632 26.0598 19.6876 24.7168 19.6876C23.5054 19.6876 22.8441 21.1416 22.8441 22.9765ZM15.4414 12.4823C17.4465 12.4823 18.7682 14.0498 18.7682 16.8228C18.7682 19.8871 17.1825 21.4079 15.3312 21.4079C13.5474 21.4079 12.0053 19.9538 11.9831 17.0239C11.9831 14.1166 13.5465 12.4823 15.4414 12.4823ZM15.3756 13.669C14.166 13.669 13.5252 15.1222 13.5252 16.9579C13.4807 18.8128 14.166 20.222 15.3756 20.2236C16.6528 20.2236 17.2261 18.8364 17.2261 16.9138C17.2261 15.1449 16.7195 13.669 15.3756 13.669ZM15.1988 27.3872L23.6148 12.6383H24.8483L16.4316 27.3872H15.1988ZM36.5842 22.973L39.9964 19.999L36.5842 17.0284L38.7944 13.0539L34.5851 11.4506L35.3173 6.94716L30.8226 6.90204L30.0017 2.41228L25.7608 3.92692L23.4721 -0.0022L20 2.90156L16.5281 -0.0022L14.2394 3.92612L9.99936 2.41148L9.17748 6.90096L4.68204 6.94528L5.41504 11.449L1.20492 13.0523L3.41508 17.0258L0.00292 19.999L3.41508 22.9711L1.20492 26.9457L5.41416 28.5472L4.68204 33.0534L9.1766 33.0983L9.99764 37.5881L14.2385 36.0726L16.5272 40.0018L19.9992 37.098L23.4704 40.0018L25.7591 36.0726L29.9991 37.5889L30.8202 33.0994L35.3156 33.0534L34.5826 28.5506L38.7927 26.9465L36.5842 22.973ZM33.9187 26.747L32.4595 27.303L32.7133 28.8655L33.0849 31.1526L30.803 31.1742L29.2422 31.1905L28.9568 32.7487L28.5399 35.0262L26.3887 34.2567L24.9202 33.7327L24.1282 35.0922L22.9671 37.0857L21.2055 35.6119L19.9992 34.6044L18.7938 35.6119L17.0321 37.0857L15.8702 35.0922L15.0775 33.7319L13.6089 34.2559L11.456 35.0246L11.0399 32.7471L10.7546 31.1889L9.19376 31.1724L6.9118 31.1499L7.28348 28.8612L7.53808 27.2988L6.07804 26.7427L3.94476 25.9313L5.0656 23.9169L5.83196 22.5382L4.64876 21.5075L2.91536 19.9979L4.65048 18.4867L5.83284 17.456L5.06644 16.0784L3.9456 14.0637L6.0806 13.251L7.5398 12.6946L7.28604 11.1332L6.9144 8.84616L9.19636 8.82372L10.7563 8.80716L11.0416 7.24976L11.4586 4.97152L13.6098 5.7402L15.0783 6.26424L15.8711 4.90476L17.0321 2.912L18.7938 4.385L19.9992 5.39244L21.2047 4.385L22.9671 2.912L24.1291 4.90556L24.9219 6.26504L26.3904 5.74128L28.5425 4.9726L28.9586 7.25084L29.2439 8.80796L30.8038 8.82452L33.0866 8.84804L32.715 11.134L32.4604 12.6965L33.9196 13.2518L36.0537 14.0645L34.9328 16.08L34.1665 17.4587L35.3497 18.4894L37.0831 19.9971L35.3489 21.5102L34.1656 22.54L34.932 23.9177L36.0529 25.9324L33.9187 26.747Z" fill="#F16D7F"/>
</svg>
