<svg width="48" height="35" viewBox="0 0 48 35" fill="none" xmlns="http://www.w3.org/2000/svg">
<path fill-rule="evenodd" clip-rule="evenodd" d="M42.374 8.54914C39.8105 8.54914 37.7266 10.5878 37.7266 13.091C37.7266 14.4336 38.3343 15.6304 39.2865 16.4629L33.4248 18.5225L25.0831 8.82049C26.8816 8.19283 28.1812 6.52943 28.1812 4.55536C28.1812 2.05062 26.0972 0.010605 23.5343 0.010605C20.9741 0.010605 18.8881 2.05062 18.8881 4.55536C18.8881 6.50993 20.1647 8.16347 21.9338 8.80607L13.5789 18.5225L7.71928 16.4629C8.67089 15.6304 9.27789 14.4336 9.27789 13.091C9.27789 10.5878 7.19401 8.54914 4.63176 8.54914C2.07105 8.54914 -0.015839 10.5878 -0.015839 13.091C-0.015839 15.2239 1.50287 17.007 3.53163 17.4934V29.8083C3.53163 29.8946 3.5633 29.968 3.58168 30.05C3.55 30.1737 3.53163 30.3032 3.53163 30.4386C3.53163 34.8595 21.4562 34.989 23.4996 34.989C25.5408 34.989 43.4675 34.8595 43.4675 30.4386C43.4675 30.3032 43.4484 30.1737 43.4175 30.05C43.4397 29.968 43.4675 29.8946 43.4675 29.8083V17.4934C45.5 17.007 47.0157 15.2239 47.0157 13.091C47.0188 10.5878 44.9349 8.54914 42.374 8.54914ZM21.1486 4.55696C21.1486 3.27012 22.22 2.2226 23.5356 2.2226C24.8491 2.2226 25.9205 3.27012 25.9205 4.55696C25.9205 5.84353 24.8491 6.88972 23.5356 6.88972C22.22 6.88972 21.1486 5.84353 21.1486 4.55696ZM13.5562 20.8654C13.999 21.0179 14.498 20.8884 14.8026 20.5345L23.5011 10.415L32.2016 20.5345C32.5049 20.8884 33.0024 21.0179 33.4468 20.8667L41.207 18.136V28.0928C36.3209 25.967 25.0934 25.888 23.4996 25.888C21.9066 25.888 10.6768 25.967 5.79209 28.0928V18.1347L13.5562 20.8654ZM23.5026 32.7786C14.7952 32.7786 9.24927 31.7655 6.94082 30.9135C6.48685 30.7466 6.14765 30.581 5.94451 30.4386C6.66634 29.9162 9.00628 29.2036 12.9129 28.7031C15.6673 28.3489 19.1927 28.0984 23.5026 28.0984C27.8131 28.0984 31.3393 28.3489 34.0943 28.7031C38.0002 29.2036 40.3417 29.9162 41.0613 30.4386C40.8582 30.5853 40.5198 30.7466 40.0665 30.9135C37.7588 31.7655 32.2136 32.7786 23.5026 32.7786ZM2.24904 13.091C2.24904 11.8057 3.32046 10.7596 4.63617 10.7596C5.95194 10.7596 7.02171 11.8057 7.02171 13.091C7.02171 14.3778 5.95194 15.4253 4.63617 15.4253C3.32046 15.4253 2.24904 14.3778 2.24904 13.091ZM42.374 15.4253C41.0584 15.4253 39.9871 14.3778 39.9871 13.091C39.9871 11.8057 41.0584 10.7596 42.374 10.7596C43.6867 10.7596 44.7612 11.8057 44.7612 13.091C44.7583 14.3778 43.6867 15.4253 42.374 15.4253Z" fill="#F16D7F"/>
</svg>
