<svg width="41" height="37" viewBox="0 0 41 37" fill="none" xmlns="http://www.w3.org/2000/svg">
<g clip-path="url(#clip0_0_278)">
<path fill-rule="evenodd" clip-rule="evenodd" d="M1.18355 10.364H4.57664L9.40986 27.8193C9.54784 28.3313 10.0213 28.686 10.554 28.686H25.4086C25.882 28.686 26.2963 28.4101 26.4935 27.9769L31.8987 15.565C32.0566 15.1908 32.0171 14.7771 31.8001 14.4421C31.5831 14.1072 31.2083 13.9101 30.8137 13.9101H14.4008C13.7497 13.9101 13.2171 14.4421 13.2171 15.0922C13.2171 15.7423 13.7497 16.2744 14.4008 16.2744H28.9989L24.6195 26.322H11.4417L6.60854 8.86667C6.47053 8.35438 5.99702 7.99968 5.46442 7.99968H1.18355C0.532576 7.99968 -6.4e-05 8.53174 -6.4e-05 9.18184C-6.4e-05 9.83193 0.532576 10.364 1.18355 10.364ZM9.4295 36.9999C10.909 36.9999 12.1124 35.7983 12.1124 34.3205C12.1124 32.8429 10.909 31.6413 9.4295 31.6413C7.94995 31.6413 6.74662 32.8429 6.74662 34.3205C6.74662 35.798 7.94995 36.9999 9.4295 36.9999ZM26.395 36.9999H26.1977C24.797 36.9999 23.6332 35.8965 23.5345 34.4978C23.4358 33.04 24.5406 31.7396 26.0201 31.6413C27.4997 31.5428 28.7819 32.6656 28.8805 34.1236C28.92 34.8525 28.703 35.5421 28.2296 36.0739C27.7561 36.6257 27.1051 36.9409 26.395 36.9999Z" fill="#222222"/>
</g>
<defs>
<clipPath id="clip0_0_278">
<rect width="41" height="37" fill="white"/>
</clipPath>
</defs>
</svg>
