<!-- icon666.com - MILLIONS vector ICONS FREE --><svg version="1.1" id="Capa_1" xmlns="http://www.w3.org/2000/svg" xmlns:xlink="http://www.w3.org/1999/xlink" x="0px" y="0px" viewBox="0 0 512.11 512.11" style="enable-background:new 0 0 512.11 512.11;" xml:space="preserve"><g><g><g><path d="M475.217,366.515l-130.5,45.79c-1.919,0.669-3.94,1.002-5.973,0.981h-2.031c2.611-9.284,1.413-19.225-3.328-27.622 l-0.666-1.212c-7.702-13.573-22.061-22.005-37.666-22.118h-36.864c-12.704-0.076-24.979-4.606-34.688-12.8 c-12.781-10.736-28.919-16.656-45.611-16.734h-4.326c-2.15,0-45.892,0.401-74.129,24.474c-3.178-4.629-8.43-7.399-14.046-7.407 H17.122c-9.426,0-17.067,7.641-17.067,17.067V486.4c0,9.426,7.641,17.067,17.067,17.067h68.267 c5.093-0.021,9.907-2.326,13.116-6.281c15.46,10.558,33.953,15.762,52.651,14.814h185.344 c10.743-0.037,21.255-3.117,30.319-8.883l132.122-84.668c6.579-4.328,11.116-11.145,12.57-18.884 c1.534-7.993-0.247-16.266-4.932-22.921C499.499,366.724,486.76,362.609,475.217,366.515z M85.388,486.4H17.122V366.933h68.267 V486.4z M494.792,396.339c-0.551,3.168-2.377,5.972-5.052,7.757l-132.07,84.617c-6.33,4.028-13.669,6.185-21.171,6.221H151.155 c-32.623,0-45.286-12.8-48.7-17.186v-98.987c20.838-28.442,70.605-28.894,71.108-28.894h4.326 c12.694,0.058,24.967,4.559,34.688,12.723c12.776,10.771,28.926,16.72,45.636,16.811h36.864 c9.45,0.015,18.156,5.131,22.767,13.38l0.666,1.203c3.377,6.034,3.213,13.424-0.427,19.302h-42.001 c-14.353,0.047-28.343,4.516-40.064,12.8l-5.12,3.593c-3.602,2.791-4.375,7.919-1.757,11.649 c2.618,3.729,7.705,4.743,11.553,2.303l5.12-3.575c8.854-6.271,19.427-9.659,30.276-9.702h62.686 c3.985,0.019,7.943-0.651,11.699-1.98l130.313-45.722c4.412-1.522,9.297,0.083,11.947,3.925 C494.72,389.416,495.463,392.941,494.792,396.339z"></path><path d="M42.722,460.8c1.115-0.013,2.217-0.245,3.243-0.683c1.033-0.435,1.985-1.041,2.816-1.792 c2.697-2.662,3.316-6.783,1.52-10.12c-1.797-3.336-5.578-5.088-9.285-4.302c-0.535,0.093-1.052,0.265-1.536,0.512 c-0.546,0.188-1.065,0.446-1.545,0.768l-1.271,1.024c-0.753,0.83-1.359,1.782-1.792,2.816c-0.437,1.026-0.669,2.128-0.683,3.243 c-0.023,2.27,0.869,4.454,2.474,6.059C38.268,459.931,40.451,460.823,42.722,460.8z"></path><path d="M494.988,204.8h-1.792c8.585-41.095-14.193-82.286-53.564-96.862l19.516-26.018c1.954-2.576,2.285-6.035,0.853-8.934 l-17.067-34.133c-1.453-2.907-4.43-4.737-7.68-4.719h-51.2c-3.25-0.018-6.227,1.812-7.68,4.719l-17.067,34.133 c0,0.094-0.051,0.205-0.102,0.307c-0.051,0.102-0.137,0.444-0.222,0.666c-0.272,0.767-0.433,1.568-0.478,2.381 c0,0.162-0.094,0.299-0.094,0.461c0,0.162,0.051,0.188,0.06,0.29c0.021,0.995,0.22,1.977,0.589,2.901 c0.068,0.179,0.188,0.324,0.273,0.503c0.23,0.5,0.507,0.978,0.828,1.425l19.516,26.018 c-39.371,14.576-62.149,55.767-53.564,96.862h-27.392V17.067C298.722,7.641,291.081,0,281.655,0h-59.733 c-23.552,0.028-42.638,19.114-42.667,42.667V179.2c0.028,23.552,19.114,42.638,42.667,42.667h9.216 c3.804,26.163,24.354,46.713,50.517,50.517v9.216c0.028,23.552,19.114,42.638,42.667,42.667h145.067 c23.552-0.028,42.638-19.114,42.667-42.667v-59.733C512.055,212.441,504.414,204.8,494.988,204.8z M281.655,255.147 c-16.744-3.452-29.828-16.536-33.28-33.28h33.28V255.147z M281.655,204.8h-59.733c-14.138,0-25.6-11.461-25.6-25.6V42.667 c0-14.138,11.462-25.6,25.6-25.6h59.733V204.8z M389.329,51.2h40.653l12.348,24.747l-20.591,27.452 c-8.005-1.274-16.161-1.274-24.166,0l-13.517-18.065h25.6c4.713,0,8.533-3.82,8.533-8.533s-3.82-8.533-8.533-8.533h-28.86 L389.329,51.2z M409.655,119.467c37.703,0,68.267,30.564,68.267,68.267c0.008,5.759-0.724,11.494-2.176,17.067H343.564 c-1.452-5.572-2.184-11.308-2.176-17.067C341.388,150.031,371.952,119.467,409.655,119.467z M494.988,281.6 c0,14.138-11.461,25.6-25.6,25.6H324.322c-14.138,0-25.6-11.462-25.6-25.6v-59.733h196.267V281.6z"></path></g></g></g></svg>