<svg width="45" height="32" viewBox="0 0 45 32" fill="none" xmlns="http://www.w3.org/2000/svg">
<path fill-rule="evenodd" clip-rule="evenodd" d="M11.1105 25.4172C10.5976 25.4172 10.1819 25.8381 10.1819 26.3571C10.1819 26.8555 9.78161 27.2609 9.28962 27.2609C8.79732 27.2609 8.39686 26.8555 8.39686 26.3571C8.39686 25.859 8.79732 25.4538 9.28962 25.4538C9.8024 25.4538 10.2182 25.0329 10.2182 24.5136C10.2182 23.9947 9.8024 23.5738 9.28962 23.5738C7.77339 23.5738 6.5398 24.8224 6.5398 26.3571C6.5398 27.892 7.77339 29.1407 9.28962 29.1407C10.8056 29.1407 12.039 27.892 12.039 26.3571C12.039 25.8379 11.6233 25.4172 11.1105 25.4172ZM37.582 25.4172C37.0691 25.4172 36.6534 25.8381 36.6534 26.3571C36.6534 26.8555 36.2531 27.2609 35.7611 27.2609C35.2688 27.2609 34.8684 26.8555 34.8684 26.3571C34.8684 25.859 35.2688 25.4538 35.7611 25.4538C36.2739 25.4538 36.6897 25.0329 36.6897 24.5136C36.6897 23.9947 36.2739 23.5738 35.7611 23.5738C34.2449 23.5738 33.0113 24.8224 33.0113 26.3571C33.0113 27.892 34.2449 29.1407 35.7611 29.1407C37.2771 29.1407 38.5105 27.892 38.5105 26.3571C38.5105 25.8379 38.0948 25.4172 37.582 25.4172ZM41.311 7.29018L44.8711 13.3961C44.9554 13.5408 45 13.7059 45 13.8739V26.3573C45 26.8763 44.5842 27.2972 44.0714 27.2972H41.2558C40.8122 29.9625 38.518 31.9999 35.7615 31.9999C33.0044 31.9999 30.7097 29.9625 30.266 27.2972H14.7843C14.3406 29.9625 12.0465 31.9999 9.28998 31.9999C6.53283 31.9999 4.23819 29.9625 3.79445 27.2972H1.85706C0.833085 27.2972 -4.5e-05 26.454 -4.5e-05 25.4172V1.87978C-4.5e-05 0.8432 0.833085 -0.000256 1.85706 -0.000256H27.4152C28.4391 -0.000256 29.2722 0.8432 29.2722 1.87978V3.78918H36.395C36.477 3.78918 36.5564 3.79987 36.632 3.82016C38.938 4.02368 40.0901 5.228 41.311 7.29018ZM42.2634 16.0581C41.7514 16.0581 41.3348 16.4796 41.3348 16.998V17.9085H43.1428V16.0581H42.2634ZM34.0557 13.1755H42.5859L39.8193 8.43037H32.9189V12.1969C32.9189 12.7257 33.3439 13.156 33.8662 13.156C33.9311 13.156 33.9945 13.1627 34.0557 13.1755ZM27.4152 1.87978H1.85706V25.4172H3.79435C4.23783 22.7519 6.53256 20.7146 9.28998 20.7146C12.0467 20.7146 14.3411 22.7519 14.7844 25.4172H27.4152V1.87978ZM5.57275 26.3568C5.57275 28.4318 7.24027 30.1198 9.28998 30.1198C11.339 30.1198 13.0061 28.4318 13.0061 26.3568C13.0061 24.2823 11.339 22.5943 9.28998 22.5943C7.24027 22.5943 5.57275 24.2823 5.57275 26.3568ZM32.0443 26.3568C32.0443 28.4318 33.7118 30.1198 35.7615 30.1198C37.8106 30.1198 39.4776 28.4318 39.4776 26.3568C39.4776 24.2823 37.8105 22.5943 35.7615 22.5943C33.7118 22.5943 32.0443 24.2823 32.0443 26.3568ZM35.7615 20.7146C38.5182 20.7146 40.8126 22.7519 41.2559 25.4172H43.1428V19.7883H40.4062C39.8934 19.7883 39.4776 19.3674 39.4776 18.8484V16.9978C39.4776 16.2457 39.7707 15.5616 40.2467 15.0555H33.8662C33.7869 15.0555 33.7098 15.0453 33.6362 15.0264C32.197 14.9078 31.0617 13.684 31.0617 12.1969V7.4905C31.0617 6.97126 31.4775 6.55034 31.9903 6.55034H38.475C37.8221 5.92214 37.0821 5.66922 35.8969 5.66922H29.2722V25.4172H30.2659C30.7094 22.7519 33.0041 20.7146 35.7615 20.7146ZM24.5907 5.66922H4.68144C4.16866 5.66922 3.75287 5.24829 3.75287 4.72906C3.75287 4.21011 4.16866 3.78918 4.68144 3.78918H24.5907C25.1035 3.78918 25.5193 4.21011 25.5193 4.72906C25.5193 5.24829 25.1035 5.66922 24.5907 5.66922Z" fill="#F16D7F"/>
</svg>
