<svg width="23" height="22" viewBox="0 0 23 22" fill="none" xmlns="http://www.w3.org/2000/svg">
<mask id="path-1-inside-1_0_162" fill="white">
<path fill-rule="evenodd" clip-rule="evenodd" d="M0.850632 1.7934H3.28946L6.76331 15.0351C6.86251 15.4237 7.20277 15.6927 7.58568 15.6927H18.2623C18.6027 15.6927 18.9004 15.4836 19.0422 15.1548L22.9272 5.7391C23.0406 5.45492 23.0123 5.14109 22.8563 4.8871C22.7004 4.63309 22.431 4.48351 22.1473 4.48351H10.3506C9.88259 4.48351 9.49978 4.8871 9.49978 5.38041C9.49978 5.87345 9.88259 6.27702 10.3506 6.27702H20.843L17.6953 13.8992H8.22367L4.74991 0.65747C4.65065 0.268862 4.31036 -8.8e-05 3.92757 -8.8e-05H0.850632C0.382766 -8.8e-05 -4.6e-05 0.40348 -4.6e-05 0.896522C-4.6e-05 1.38983 0.382766 1.7934 0.850632 1.7934ZM6.77743 22C7.84088 22 8.70575 21.0881 8.70575 19.9672C8.70575 18.8465 7.84088 17.9346 6.77743 17.9346C5.71398 17.9346 4.84911 18.8462 4.84911 19.9672C4.84911 21.0881 5.71398 22 6.77743 22ZM18.9713 22H18.8296C17.8229 22 16.9863 21.1629 16.9154 20.1018C16.8445 18.9958 17.6385 18.0094 18.702 17.9346C19.7654 17.8598 20.687 18.7119 20.7579 19.8179C20.7862 20.3707 20.6303 20.894 20.29 21.2975C19.9497 21.7161 19.4818 21.9551 18.9713 22Z"/>
</mask>
<path fill-rule="evenodd" clip-rule="evenodd" d="M0.850632 1.7934H3.28946L6.76331 15.0351C6.86251 15.4237 7.20277 15.6927 7.58568 15.6927H18.2623C18.6027 15.6927 18.9004 15.4836 19.0422 15.1548L22.9272 5.7391C23.0406 5.45492 23.0123 5.14109 22.8563 4.8871C22.7004 4.63309 22.431 4.48351 22.1473 4.48351H10.3506C9.88259 4.48351 9.49978 4.8871 9.49978 5.38041C9.49978 5.87345 9.88259 6.27702 10.3506 6.27702H20.843L17.6953 13.8992H8.22367L4.74991 0.65747C4.65065 0.268862 4.31036 -8.8e-05 3.92757 -8.8e-05H0.850632C0.382766 -8.8e-05 -4.6e-05 0.40348 -4.6e-05 0.896522C-4.6e-05 1.38983 0.382766 1.7934 0.850632 1.7934ZM6.77743 22C7.84088 22 8.70575 21.0881 8.70575 19.9672C8.70575 18.8465 7.84088 17.9346 6.77743 17.9346C5.71398 17.9346 4.84911 18.8462 4.84911 19.9672C4.84911 21.0881 5.71398 22 6.77743 22ZM18.9713 22H18.8296C17.8229 22 16.9863 21.1629 16.9154 20.1018C16.8445 18.9958 17.6385 18.0094 18.702 17.9346C19.7654 17.8598 20.687 18.7119 20.7579 19.8179C20.7862 20.3707 20.6303 20.894 20.29 21.2975C19.9497 21.7161 19.4818 21.9551 18.9713 22Z" fill="white"/>
<path d="M3.28946 1.7934L5.224 1.28589L4.83245 -0.206604H3.28946V1.7934ZM6.76331 15.0351L8.70122 14.5405L8.69785 14.5276L6.76331 15.0351ZM19.0422 15.1548L20.8788 15.9465L20.885 15.9321L20.891 15.9176L19.0422 15.1548ZM22.9272 5.7391L24.776 6.50194L24.7805 6.49121L24.7848 6.48043L22.9272 5.7391ZM22.8563 4.8871L21.1519 5.93347L21.1521 5.93388L22.8563 4.8871ZM20.843 6.27702L22.6916 7.04042L23.8328 4.27702H20.843V6.27702ZM17.6953 13.8992V15.8992H19.0332L19.5439 14.6626L17.6953 13.8992ZM8.22367 13.8992L6.28913 14.4067L6.68067 15.8992H8.22367V13.8992ZM4.74991 0.65747L2.8121 1.15248L2.81537 1.16497L4.74991 0.65747ZM18.9713 22V24H19.059L19.1464 23.9923L18.9713 22ZM16.9154 20.1018L14.9195 20.2297L14.9198 20.2352L16.9154 20.1018ZM18.702 17.9346L18.5617 15.9395L18.5617 15.9395L18.702 17.9346ZM20.7579 19.8179L22.7553 19.7155L22.7546 19.7027L22.7538 19.6898L20.7579 19.8179ZM20.29 21.2975L18.7611 20.0081L18.7495 20.0219L18.7381 20.0358L20.29 21.2975ZM3.28946 -0.206604H0.850632V3.7934H3.28946V-0.206604ZM8.69785 14.5276L5.224 1.28589L1.35492 2.30091L4.82877 15.5426L8.69785 14.5276ZM7.58568 13.6927C8.15845 13.6927 8.58477 14.0844 8.70118 14.5405L4.82544 15.5298C5.14025 16.7631 6.2471 17.6927 7.58568 17.6927V13.6927ZM18.2623 13.6927H7.58568V17.6927H18.2623V13.6927ZM17.2055 14.3631C17.3486 14.0311 17.728 13.6927 18.2623 13.6927V17.6927C19.4774 17.6927 20.4522 16.936 20.8788 15.9465L17.2055 14.3631ZM21.0784 4.97625L17.1934 14.3919L20.891 15.9176L24.776 6.50194L21.0784 4.97625ZM21.1521 5.93388C20.9765 5.64798 20.9496 5.29871 21.0697 4.99776L24.7848 6.48043C25.1317 5.61113 25.0481 4.63421 24.5605 3.84033L21.1521 5.93388ZM22.1473 6.48351C21.722 6.48351 21.3525 6.26028 21.1519 5.93347L24.5607 3.84074C24.0482 3.0059 23.1399 2.48351 22.1473 2.48351V6.48351ZM10.3506 6.48351H22.1473V2.48351H10.3506V6.48351ZM11.4998 5.38041C11.4998 5.89082 11.0854 6.48351 10.3506 6.48351V2.48351C8.6798 2.48351 7.49978 3.88338 7.49978 5.38041H11.4998ZM10.3506 4.27702C11.0849 4.27702 11.4998 4.86927 11.4998 5.38041H7.49978C7.49978 6.87763 8.68024 8.27702 10.3506 8.27702V4.27702ZM20.843 4.27702H10.3506V8.27702H20.843V4.27702ZM19.5439 14.6626L22.6916 7.04042L18.9944 5.51362L15.8467 13.1358L19.5439 14.6626ZM8.22367 15.8992H17.6953V11.8992H8.22367V15.8992ZM2.81537 1.16497L6.28913 14.4067L10.1582 13.3917L6.68445 0.149973L2.81537 1.16497ZM3.92757 1.99991C3.35456 1.99991 2.92853 1.60811 2.81214 1.15247L6.68769 0.162475C6.37276 -1.07039 5.26616 -2.00009 3.92757 -2.00009V1.99991ZM0.850632 1.99991H3.92757V-2.00009H0.850632V1.99991ZM1.99995 0.896522C1.99995 1.40752 1.58526 1.99991 0.850632 1.99991V-2.00009C-0.819725 -2.00009 -2.00005 -0.600557 -2.00005 0.896522H1.99995ZM0.850632 -0.206604C1.58563 -0.206604 1.99995 0.386184 1.99995 0.896522H-2.00005C-2.00005 2.39347 -0.820097 3.7934 0.850632 3.7934V-0.206604ZM6.70575 19.9672C6.70575 20.0081 6.69117 20.0256 6.68935 20.0275C6.68879 20.0281 6.69497 20.0213 6.71181 20.0138C6.7304 20.0055 6.75425 20 6.77743 20V24C9.04364 24 10.7058 22.0919 10.7058 19.9672H6.70575ZM6.77743 19.9346C6.75424 19.9346 6.7304 19.9291 6.71182 19.9208C6.695 19.9133 6.68883 19.9065 6.6894 19.9071C6.69125 19.909 6.70575 19.9265 6.70575 19.9672H10.7058C10.7058 17.8426 9.04351 15.9346 6.77743 15.9346V19.9346ZM6.84911 19.9672C6.84911 19.9263 6.86368 19.9089 6.8654 19.9071C6.86592 19.9065 6.85972 19.9133 6.84289 19.9208C6.82432 19.9291 6.80053 19.9346 6.77743 19.9346V15.9346C4.51154 15.9346 2.84911 17.8421 2.84911 19.9672H6.84911ZM6.77743 20C6.80062 20 6.82447 20.0055 6.84305 20.0138C6.85989 20.0213 6.86608 20.0281 6.86551 20.0275C6.8637 20.0256 6.84911 20.0081 6.84911 19.9672H2.84911C2.84911 22.0919 4.51122 24 6.77743 24V20ZM18.8296 24H18.9713V20H18.8296V24ZM14.9198 20.2352C15.0535 22.2337 16.6604 24 18.8296 24V20C18.858 20 18.8852 20.0064 18.9057 20.0152C18.9151 20.0193 18.9218 20.0232 18.9259 20.026C18.93 20.0288 18.9318 20.0306 18.9318 20.0306C18.9318 20.0306 18.9305 20.0293 18.9285 20.0264C18.9265 20.0235 18.9241 20.0195 18.9216 20.0142C18.917 20.0041 18.9123 19.9892 18.9109 19.9683L14.9198 20.2352ZM18.5617 15.9395C16.2815 16.0999 14.7862 18.15 14.9195 20.2297L18.9113 19.9739C18.9101 19.9551 18.9126 19.9393 18.9169 19.926C18.9216 19.9116 18.9278 19.9022 18.9311 19.8981C18.9343 19.8942 18.9305 19.9005 18.914 19.9094C18.8955 19.9193 18.8696 19.9278 18.8423 19.9297L18.5617 15.9395ZM22.7538 19.6898C22.6179 17.5713 20.824 15.7805 18.5617 15.9395L18.8423 19.9297C18.8196 19.9313 18.7952 19.9275 18.7753 19.9203C18.7573 19.9137 18.7497 19.9068 18.7491 19.9063C18.7486 19.9058 18.7517 19.9087 18.7549 19.9154C18.7576 19.9211 18.761 19.9305 18.762 19.9459L22.7538 19.6898ZM21.8188 22.5869C22.527 21.7472 22.8062 20.7079 22.7553 19.7155L18.7605 19.9202C18.7635 19.9777 18.7556 20.0094 18.7527 20.0189C18.7503 20.0266 18.7515 20.0196 18.7611 20.0081L21.8188 22.5869ZM19.1464 23.9923C20.1873 23.9008 21.155 23.4039 21.8418 22.5592L18.7381 20.0358C18.736 20.0384 18.7371 20.0367 18.7419 20.0327C18.7468 20.0287 18.7536 20.024 18.762 20.0195C18.7803 20.0099 18.7941 20.0078 18.7962 20.0077L19.1464 23.9923Z" fill="white" mask="url(#path-1-inside-1_0_162)"/>
</svg>
