<svg width="26" height="24" viewBox="0 0 26 24" fill="none" xmlns="http://www.w3.org/2000/svg">
<path fill-rule="evenodd" clip-rule="evenodd" d="M0.961428 1.956H3.71831L7.64525 16.4016C7.75741 16.8254 8.14203 17.1189 8.5749 17.1189H20.6442C21.0289 17.1189 21.3655 16.8907 21.5257 16.5318L25.9176 6.2605C26.0457 5.95051 26.0137 5.6081 25.8374 5.33098C25.6611 5.05387 25.3565 4.89082 25.0359 4.89082H11.7005C11.1715 4.89082 10.7387 5.33098 10.7387 5.86889C10.7387 6.40702 11.1715 6.84718 11.7005 6.84718H23.5614L20.0032 15.1621H9.29617L5.36931 0.71712C5.25707 0.292872 4.87245 -0.000576 4.43968 -0.000576H0.961428C0.432536 -0.000576 -0.00026 0.439608 -0.00026 0.97752C-0.00026 1.51603 0.432536 1.956 0.961428 1.956ZM7.66129 23.9995C8.8634 23.9995 9.8411 23.0047 9.8411 21.7819C9.8411 20.5596 8.8634 19.5646 7.66129 19.5646C6.45908 19.5646 5.48137 20.5594 5.48137 21.7819C5.48137 23.0047 6.45908 23.9995 7.66129 23.9995ZM21.4456 23.9995H21.2855C20.1475 23.9995 19.2018 23.0863 19.1215 21.9288C19.0415 20.7222 19.9391 19.6462 21.1412 19.5646C22.3434 19.483 23.3851 20.4125 23.4653 21.6191C23.4973 22.2221 23.321 22.7932 22.9363 23.2332C22.5517 23.6897 22.0228 23.9507 21.4456 23.9995Z" fill="#EF5B70"/>
</svg>
